<?xml version="1.0" encoding="UTF-8" standalone="no"?><!DOCTYPE svg PUBLIC "-//W3C//DTD SVG 1.1//EN" "http://www.w3.org/Graphics/SVG/1.1/DTD/svg11.dtd"><svg width="100%" height="100%" viewBox="0 0 1155 1194" version="1.1" xmlns="http://www.w3.org/2000/svg" xmlns:xlink="http://www.w3.org/1999/xlink" xml:space="preserve" style="fill-rule:evenodd;clip-rule:evenodd;stroke-linecap:round;stroke-miterlimit:10;"><rect id="Some-Hedging" x="-1591.91" y="-342.045" width="3507.87" height="2480.32" style="fill:none;"/><path d="M899.012,352.764l42.724,11.306l11.305,-42.724" class="stroke-primary" style="fill:none;stroke-width:4.17px;"/><path d="M941.736,364.07c-84.729,-144.672 -239.861,-233.674 -407.665,-233.674c-111.072,0 -218.593,39.135 -303.679,110.53" class="stroke-primary" style="fill:none;stroke-width:4.17px;stroke-linejoin:round;stroke-miterlimit:1.5;"/><g transform="matrix(1,0,0,1,-19959.7,-3629.49)"><g transform="matrix(0.790315,-0.612701,0.612701,0.790315,1873.18,13161)"><text x="20164.9px" y="3843.79px" class="fill-primary" style="font-family:'Graphik-Bold', 'Graphik', sans-serif;font-weight:700;font-size:58.333px;">R</text></g><g transform="matrix(0.826371,-0.563126,0.563126,0.826371,1353.89,12034.8)"><text x="20193px" y="3821.87px" class="fill-primary" style="font-family:'Graphik-Bold', 'Graphik', sans-serif;font-weight:700;font-size:58.333px;">e</text></g><g transform="matrix(0.859906,-0.510452,0.510452,0.859906,890.679,10853.6)"><text x="20218.7px" y="3804.15px" class="fill-primary" style="font-family:'Graphik-Bold', 'Graphik', sans-serif;font-weight:700;font-size:58.333px;">q</text></g><g transform="matrix(0.891779,-0.452471,0.452471,0.891779,477.729,9571.27)"><text x="20247.6px" y="3786.94px" class="fill-primary" style="font-family:'Graphik-Bold', 'Graphik', sans-serif;font-weight:700;font-size:58.333px;">u</text></g><g transform="matrix(0.912204,-0.409735,0.409735,0.912204,234.795,8639.59)"><text x="20277.6px" y="3771.91px" class="fill-primary" style="font-family:'Graphik-Bold', 'Graphik', sans-serif;font-weight:700;font-size:58.333px;">i</text></g><g transform="matrix(0.927302,-0.374315,0.374315,0.927302,65.5893,7869.03)"><text x="20291.1px" y="3765.66px" class="fill-primary" style="font-family:'Graphik-Bold', 'Graphik', sans-serif;font-weight:700;font-size:58.333px;">r</text></g><g transform="matrix(0.945191,-0.326519,0.326519,0.945191,-113.587,6837.94)"><text x="20311.2px" y="3757.31px" class="fill-primary" style="font-family:'Graphik-Bold', 'Graphik', sans-serif;font-weight:700;font-size:58.333px;">e</text></g><g transform="matrix(0.967982,-0.251019,0.251019,0.967982,-289.297,5225.64)"><text x="20339.8px" y="3746.86px" class="fill-primary" style="font-family:'Graphik-Bold', 'Graphik', sans-serif;font-weight:700;font-size:58.333px;">m</text></g><g transform="matrix(0.984693,-0.1743,0.1743,0.984693,-338.847,3610.79)"><text x="20388px" y="3734.56px" class="fill-primary" style="font-family:'Graphik-Bold', 'Graphik', sans-serif;font-weight:700;font-size:58.333px;">e</text></g><g transform="matrix(0.993704,-0.112036,0.112036,0.993704,-289.227,2311.09)"><text x="20418.6px" y="3728.98px" class="fill-primary" style="font-family:'Graphik-Bold', 'Graphik', sans-serif;font-weight:700;font-size:58.333px;">n</text></g><g transform="matrix(0.998133,-0.0610824,0.0610824,0.998133,-189.364,1256.2)"><text x="20451.8px" y="3725.35px" class="fill-primary" style="font-family:'Graphik-Bold', 'Graphik', sans-serif;font-weight:700;font-size:58.333px;">t</text></g><g transform="matrix(0.99991,-0.0134125,0.0134125,0.99991,-48.1062,274.915)"><text x="20472px" y="3723.98px" class="fill-primary" style="font-family:'Graphik-Bold', 'Graphik', sans-serif;font-weight:700;font-size:58.333px;">s</text></g></g><path d="M568.17,1043.92l-31.153,31.347l31.347,31.153" class="stroke-primary" style="fill:none;stroke-width:4.17px;"/><path d="M537.017,1075.27c167.654,-1.041 322.298,-90.889 406.2,-236.211c55.536,-96.192 75.405,-208.875 56.117,-318.259" class="stroke-primary" style="fill:none;stroke-width:4.17px;stroke-linejoin:round;stroke-miterlimit:1.5;"/><g transform="matrix(-0.5,0.866025,-0.866025,-0.5,14446.3,-15029.2)"><g transform="matrix(0.79126,-0.61148,0.61148,0.79126,1858.78,13132.7)"><text x="20164.8px" y="3843.82px" class="fill-primary" style="font-family:'Graphik-Bold', 'Graphik', sans-serif;font-weight:700;font-size:58.333px;">D</text></g><g transform="matrix(0.830487,-0.557038,0.557038,0.830487,1295.78,11897.4)"><text x="20196px" y="3819.67px" class="fill-primary" style="font-family:'Graphik-Bold', 'Graphik', sans-serif;font-weight:700;font-size:58.333px;">e</text></g><g transform="matrix(0.861208,-0.508253,0.508253,0.861208,874.373,10805.8)"><text x="20222.4px" y="3801.92px" class="fill-primary" style="font-family:'Graphik-Bold', 'Graphik', sans-serif;font-weight:700;font-size:58.333px;">s</text></g><g transform="matrix(0.881645,-0.471914,0.471914,0.881645,608.64,10002.8)"><text x="20246.2px" y="3787.99px" class="fill-primary" style="font-family:'Graphik-Bold', 'Graphik', sans-serif;font-weight:700;font-size:58.333px;">i</text></g><g transform="matrix(0.902723,-0.430221,0.430221,0.902723,344.096,9083.59)"><text x="20258.9px" y="3780.89px" class="fill-primary" style="font-family:'Graphik-Bold', 'Graphik', sans-serif;font-weight:700;font-size:58.333px;">g</text></g><g transform="matrix(0.929382,-0.36912,0.36912,0.929382,42.5188,7755.06)"><text x="20289px" y="3766.41px" class="fill-primary" style="font-family:'Graphik-Bold', 'Graphik', sans-serif;font-weight:700;font-size:58.333px;">n</text></g></g><path d="M135.031,411.825l-11.571,-42.652l-42.653,11.57" class="stroke-primary" style="fill:none;stroke-width:4.17px;"/><path d="M123.46,369.173c-82.926,145.713 -82.437,324.562 1.465,469.885c55.536,96.191 143.188,169.739 247.562,207.728" class="stroke-primary" style="fill:none;stroke-width:4.17px;stroke-linejoin:round;stroke-miterlimit:1.5;"/><g transform="matrix(-0.5,-0.866025,0.866025,-0.5,7115.67,20467.2)"><g transform="matrix(0.79021,-0.612836,0.612836,0.79021,1874.8,13164.2)"><text x="20164.9px" y="3843.77px" class="fill-primary" style="font-family:'Graphik-Bold', 'Graphik', sans-serif;font-weight:700;font-size:58.333px;">A</text></g><g transform="matrix(0.827908,-0.560864,0.560864,0.827908,1333.3,11984.6)"><text x="20196.2px" y="3819.64px" class="fill-primary" style="font-family:'Graphik-Bold', 'Graphik', sans-serif;font-weight:700;font-size:58.333px;">s</text></g><g transform="matrix(0.856759,-0.515717,0.515717,0.856759,934.202,10972)"><text x="20218.7px" y="3804.3px" class="fill-primary" style="font-family:'Graphik-Bold', 'Graphik', sans-serif;font-weight:700;font-size:58.333px;">s</text></g><g transform="matrix(0.88515,-0.465305,0.465305,0.88515,561.118,9853.88)"><text x="20241.7px" y="3790.27px" class="fill-primary" style="font-family:'Graphik-Bold', 'Graphik', sans-serif;font-weight:700;font-size:58.333px;">e</text></g><g transform="matrix(0.910458,-0.413602,0.413602,0.910458,253.464,8721.69)"><text x="20269.8px" y="3775.46px" class="fill-primary" style="font-family:'Graphik-Bold', 'Graphik', sans-serif;font-weight:700;font-size:58.333px;">s</text></g><g transform="matrix(0.931309,-0.364229,0.364229,0.931309,23.0488,7650.45)"><text x="20294.6px" y="3764.12px" class="fill-primary" style="font-family:'Graphik-Bold', 'Graphik', sans-serif;font-weight:700;font-size:58.333px;">s</text></g></g></svg>
