<?xml version="1.0" encoding="UTF-8" standalone="no"?><!DOCTYPE svg PUBLIC "-//W3C//DTD SVG 1.1//EN" "http://www.w3.org/Graphics/SVG/1.1/DTD/svg11.dtd"><svg width="100%" height="100%" viewBox="0 0 905 1318" version="1.1" xmlns="http://www.w3.org/2000/svg" xmlns:xlink="http://www.w3.org/1999/xlink" xml:space="preserve" style="fill-rule:evenodd;clip-rule:evenodd;stroke-linecap:round;stroke-linejoin:round;stroke-miterlimit:1.5;"><rect id="Some-Hedging" x="-464.913" y="-169.045" width="3507.87" height="2480.32" style="fill:none;"/><g transform="matrix(1,0,0,1,-18863.5,-3362.09)"><g transform="matrix(0.995452,0.0952685,-0.0952685,0.995452,412.543,-1784.76)"><text x="18897.7px" y="3428.09px" class="fill-primary" style="font-family:'Graphik-Bold', 'Graphik', sans-serif;font-weight:700;font-size:58.333px;">D</text></g><g transform="matrix(0.967123,0.254307,-0.254307,0.967123,1495.61,-4703.96)"><text x="18940.9px" y="3432.47px" class="fill-primary" style="font-family:'Graphik-Bold', 'Graphik', sans-serif;font-weight:700;font-size:58.333px;">e</text></g><g transform="matrix(0.92239,0.386259,-0.386259,0.92239,2801.99,-7062.13)"><text x="18974.9px" y="3441.62px" class="fill-primary" style="font-family:'Graphik-Bold', 'Graphik', sans-serif;font-weight:700;font-size:58.333px;">s</text></g><g transform="matrix(0.87897,0.476878,-0.476878,0.87897,3946.78,-8643.88)"><text x="19002.5px" y="3453.51px" class="fill-primary" style="font-family:'Graphik-Bold', 'Graphik', sans-serif;font-weight:700;font-size:58.333px;">i</text></g><g transform="matrix(0.820255,0.571999,-0.571999,0.820255,5398.23,-10256.1)"><text x="19017.9px" y="3461.29px" class="fill-primary" style="font-family:'Graphik-Bold', 'Graphik', sans-serif;font-weight:700;font-size:58.333px;">g</text></g><g transform="matrix(0.719109,0.694897,-0.694897,0.719109,7770.76,-12258.5)"><text x="19048.6px" y="3482.81px" class="fill-primary" style="font-family:'Graphik-Bold', 'Graphik', sans-serif;font-weight:700;font-size:58.333px;">n</text></g><g transform="matrix(0.563976,0.825791,-0.825791,0.563976,11224.6,-14224.5)"><text x="19082.3px" y="3516.94px" class="fill-primary" style="font-family:'Graphik-Bold', 'Graphik', sans-serif;font-weight:700;font-size:58.333px;">S</text></g><g transform="matrix(0.455074,0.890454,-0.890454,0.455074,13569.5,-15076.9)"><text x="19103.2px" y="3548.42px" class="fill-primary" style="font-family:'Graphik-Bold', 'Graphik', sans-serif;font-weight:700;font-size:58.333px;">t</text></g><g transform="matrix(0.346601,0.938013,-0.938013,0.346601,15836.2,-15597.2)"><text x="19113.7px" y="3568.51px" class="fill-primary" style="font-family:'Graphik-Bold', 'Graphik', sans-serif;font-weight:700;font-size:58.333px;">a</text></g><g transform="matrix(0.201069,0.979577,-0.979577,0.201069,18806.6,-15858.5)"><text x="19125.4px" y="3600.24px" class="fill-primary" style="font-family:'Graphik-Bold', 'Graphik', sans-serif;font-weight:700;font-size:58.333px;">g</text></g><g transform="matrix(0.0459493,0.998944,-0.998944,0.0459493,21886.8,-15642.8)"><text x="19132.8px" y="3636.93px" class="fill-primary" style="font-family:'Graphik-Bold', 'Graphik', sans-serif;font-weight:700;font-size:58.333px;">e</text></g></g><g transform="matrix(1,0,0,1,-18634,-3059.43)"><g transform="matrix(0.995452,0.0952685,-0.0952685,0.995452,412.543,-1784.76)"><text x="18897.7px" y="3428.09px" class="fill-primary" style="font-family:'Graphik-Bold', 'Graphik', sans-serif;font-weight:700;font-size:58.333px;">D</text></g><g transform="matrix(0.967123,0.254307,-0.254307,0.967123,1495.61,-4703.96)"><text x="18940.9px" y="3432.47px" class="fill-primary" style="font-family:'Graphik-Bold', 'Graphik', sans-serif;font-weight:700;font-size:58.333px;">e</text></g><g transform="matrix(0.92239,0.386259,-0.386259,0.92239,2801.99,-7062.13)"><text x="18974.9px" y="3441.62px" class="fill-primary" style="font-family:'Graphik-Bold', 'Graphik', sans-serif;font-weight:700;font-size:58.333px;">s</text></g><g transform="matrix(0.87897,0.476878,-0.476878,0.87897,3946.78,-8643.88)"><text x="19002.5px" y="3453.51px" class="fill-primary" style="font-family:'Graphik-Bold', 'Graphik', sans-serif;font-weight:700;font-size:58.333px;">i</text></g><g transform="matrix(0.820255,0.571999,-0.571999,0.820255,5398.23,-10256.1)"><text x="19017.9px" y="3461.29px" class="fill-primary" style="font-family:'Graphik-Bold', 'Graphik', sans-serif;font-weight:700;font-size:58.333px;">g</text></g><g transform="matrix(0.719109,0.694897,-0.694897,0.719109,7770.76,-12258.5)"><text x="19048.6px" y="3482.81px" class="fill-primary" style="font-family:'Graphik-Bold', 'Graphik', sans-serif;font-weight:700;font-size:58.333px;">n</text></g><g transform="matrix(0.563976,0.825791,-0.825791,0.563976,11224.6,-14224.5)"><text x="19082.3px" y="3516.94px" class="fill-primary" style="font-family:'Graphik-Bold', 'Graphik', sans-serif;font-weight:700;font-size:58.333px;">S</text></g><g transform="matrix(0.455074,0.890454,-0.890454,0.455074,13569.5,-15076.9)"><text x="19103.2px" y="3548.42px" class="fill-primary" style="font-family:'Graphik-Bold', 'Graphik', sans-serif;font-weight:700;font-size:58.333px;">t</text></g><g transform="matrix(0.346601,0.938013,-0.938013,0.346601,15836.2,-15597.2)"><text x="19113.7px" y="3568.51px" class="fill-primary" style="font-family:'Graphik-Bold', 'Graphik', sans-serif;font-weight:700;font-size:58.333px;">a</text></g><g transform="matrix(0.201069,0.979577,-0.979577,0.201069,18806.6,-15858.5)"><text x="19125.4px" y="3600.24px" class="fill-primary" style="font-family:'Graphik-Bold', 'Graphik', sans-serif;font-weight:700;font-size:58.333px;">g</text></g><g transform="matrix(0.0459493,0.998944,-0.998944,0.0459493,21886.8,-15642.8)"><text x="19132.8px" y="3636.93px" class="fill-primary" style="font-family:'Graphik-Bold', 'Graphik', sans-serif;font-weight:700;font-size:58.333px;">e</text></g></g><g transform="matrix(1,0,0,1,-18404.1,-2752.34)"><g transform="matrix(0.995452,0.0952685,-0.0952685,0.995452,412.543,-1784.76)"><text x="18897.7px" y="3428.09px" class="fill-primary" style="font-family:'Graphik-Bold', 'Graphik', sans-serif;font-weight:700;font-size:58.333px;">D</text></g><g transform="matrix(0.967123,0.254307,-0.254307,0.967123,1495.61,-4703.96)"><text x="18940.9px" y="3432.47px" class="fill-primary" style="font-family:'Graphik-Bold', 'Graphik', sans-serif;font-weight:700;font-size:58.333px;">e</text></g><g transform="matrix(0.92239,0.386259,-0.386259,0.92239,2801.99,-7062.13)"><text x="18974.9px" y="3441.62px" class="fill-primary" style="font-family:'Graphik-Bold', 'Graphik', sans-serif;font-weight:700;font-size:58.333px;">s</text></g><g transform="matrix(0.87897,0.476878,-0.476878,0.87897,3946.78,-8643.88)"><text x="19002.5px" y="3453.51px" class="fill-primary" style="font-family:'Graphik-Bold', 'Graphik', sans-serif;font-weight:700;font-size:58.333px;">i</text></g><g transform="matrix(0.820255,0.571999,-0.571999,0.820255,5398.23,-10256.1)"><text x="19017.9px" y="3461.29px" class="fill-primary" style="font-family:'Graphik-Bold', 'Graphik', sans-serif;font-weight:700;font-size:58.333px;">g</text></g><g transform="matrix(0.719109,0.694897,-0.694897,0.719109,7770.76,-12258.5)"><text x="19048.6px" y="3482.81px" class="fill-primary" style="font-family:'Graphik-Bold', 'Graphik', sans-serif;font-weight:700;font-size:58.333px;">n</text></g><g transform="matrix(0.563976,0.825791,-0.825791,0.563976,11224.6,-14224.5)"><text x="19082.3px" y="3516.94px" class="fill-primary" style="font-family:'Graphik-Bold', 'Graphik', sans-serif;font-weight:700;font-size:58.333px;">S</text></g><g transform="matrix(0.455074,0.890454,-0.890454,0.455074,13569.5,-15076.9)"><text x="19103.2px" y="3548.42px" class="fill-primary" style="font-family:'Graphik-Bold', 'Graphik', sans-serif;font-weight:700;font-size:58.333px;">t</text></g><g transform="matrix(0.346601,0.938013,-0.938013,0.346601,15836.2,-15597.2)"><text x="19113.7px" y="3568.51px" class="fill-primary" style="font-family:'Graphik-Bold', 'Graphik', sans-serif;font-weight:700;font-size:58.333px;">a</text></g><g transform="matrix(0.201069,0.979577,-0.979577,0.201069,18806.6,-15858.5)"><text x="19125.4px" y="3600.24px" class="fill-primary" style="font-family:'Graphik-Bold', 'Graphik', sans-serif;font-weight:700;font-size:58.333px;">g</text></g><g transform="matrix(0.0459493,0.998944,-0.998944,0.0459493,21886.8,-15642.8)"><text x="19132.8px" y="3636.93px" class="fill-primary" style="font-family:'Graphik-Bold', 'Graphik', sans-serif;font-weight:700;font-size:58.333px;">e</text></g></g><path d="M630.093,1098.27l-0.84,0l0,188.976l236.221,0l-0,-188.976l-0.84,0l0.84,-0.839l-117.271,-117.271l-118.11,118.11Z" style="fill:none;"/><clipPath id="_clip1"><path d="M630.093,1098.27l-0.84,0l0,188.976l236.221,0l-0,-188.976l-0.84,0l0.84,-0.839l-117.271,-117.271l-118.11,118.11Z"/></clipPath><g clip-path="url(#_clip1)"><rect x="629.253" y="1050.42" width="236.22" height="236.82" class="fill-primary"/></g><path d="M630.093,1098.27l-0.84,0l0,188.976l236.221,0l-0,-188.976l-0.84,0l0.84,-0.839l-117.271,-117.271l-118.11,118.11Z" class="stroke-primary" style="fill:none;stroke-width:4.17px;"/></svg>
